<svg xmlns="http://www.w3.org/2000/svg" width="1200" height="800" fill="none" viewBox="0 0 1200 800"><defs><linearGradient id="bg" x1="0" x2="1200" y1="0" y2="800" gradientUnits="userSpaceOnUse"><stop stop-color="#FFFCF2"/><stop offset="1" stop-color="#F4F9EC"/></linearGradient><linearGradient id="panel" x1="120" x2="1080" y1="90" y2="710" gradientUnits="userSpaceOnUse"><stop stop-color="#FFF"/><stop offset="1" stop-color="#FBFFF6"/></linearGradient><linearGradient id="nodeA" x1="0" x2="1" y1="0" y2="1"><stop stop-color="#0FAE92"/><stop offset="1" stop-color="#22C7A8"/></linearGradient><linearGradient id="nodeB" x1="0" x2="1" y1="0" y2="1"><stop stop-color="#1FBA9E"/><stop offset="1" stop-color="#56D9BE"/></linearGradient><linearGradient id="nodeC" x1="0" x2="1" y1="0" y2="1"><stop stop-color="#2BC7AE"/><stop offset="1" stop-color="#72E3CD"/></linearGradient><linearGradient id="nodeD" x1="0" x2="1" y1="0" y2="1"><stop stop-color="#10B18F"/><stop offset="1" stop-color="#40C9A7"/></linearGradient><filter id="softShadow" width="140%" height="160%" x="-20%" y="-20%" color-interpolation-filters="sRGB"><feDropShadow dx="0" dy="10" flood-color="#0B5A4B" flood-opacity=".16" stdDeviation="12"/></filter><filter id="chipShadow" width="160%" height="260%" x="-30%" y="-80%" color-interpolation-filters="sRGB"><feDropShadow dx="0" dy="3" flood-color="#0E4F41" flood-opacity=".14" stdDeviation="4"/></filter><marker id="arrow" markerHeight="7" markerWidth="7" orient="auto-start-reverse" refX="8.8" refY="5" viewBox="0 0 10 10"><path fill="#1B8D78" d="M0 0L10 5L0 10Z"/></marker><style>.label,.small{font-family:Inter,ui-sans-serif,system-ui,-apple-system,Segoe UI,Roboto,Arial,sans-serif;font-weight:700;letter-spacing:.14em;fill:#0c2f29}.small{font-weight:600;letter-spacing:.03em;fill:#1e5d52}</style></defs><rect width="1200" height="800" fill="url(#bg)"/><rect width="1092" height="712" x="54" y="44" fill="url(#panel)" stroke="#D9E7D8" rx="66"/><g fill="none" stroke="#1B8D78" stroke-linecap="round" stroke-width="14" opacity=".9"><path marker-end="url(#arrow)" d="M332 248C432 176 552 176 652 248"/><path marker-end="url(#arrow)" d="M744 248C844 176 954 184 1024 252"/><path marker-end="url(#arrow)" d="M680 292C692 372 672 452 600 520"/><path marker-end="url(#arrow)" d="M1010 292C988 410 874 498 740 530"/><path marker-end="url(#arrow)" d="M314 292C336 410 450 498 584 530"/></g><g filter="url(#softShadow)"><circle cx="260" cy="260" r="92" fill="url(#nodeA)"/><circle cx="260" cy="260" r="17" fill="#EFFFFB"/><circle cx="700" cy="260" r="98" fill="url(#nodeB)"/><circle cx="700" cy="260" r="18" fill="#F2FFFC"/><circle cx="1020" cy="260" r="86" fill="url(#nodeC)"/><circle cx="1020" cy="260" r="16" fill="#F2FFFC"/><circle cx="640" cy="560" r="108" fill="url(#nodeD)"/><circle cx="640" cy="560" r="20" fill="#EFFFFB"/></g><g filter="url(#chipShadow)"><rect width="250" height="54" x="110" y="108" fill="#FFFCEB" stroke="#DCE8D5" rx="20" ry="20"/><rect width="258" height="54" x="570" y="108" fill="#FFFCEB" stroke="#DCE8D5" rx="20" ry="20"/><rect width="238" height="54" x="904" y="108" fill="#FFFCEB" stroke="#DCE8D5" rx="20" ry="20"/><rect width="476" height="60" x="402" y="680" fill="#FFFCEB" stroke="#DCE8D5" rx="22" ry="22"/></g><text x="235" y="143" class="label" font-size="28" text-anchor="middle">COLLECTION</text><text x="699" y="143" class="label" font-size="28" text-anchor="middle">SORTING</text><text x="1023" y="143" class="label" font-size="26" text-anchor="middle">RECOVERY</text><text x="640" y="719" class="label" font-size="34" text-anchor="middle">CIRCULAR OUTCOMES</text><text x="260" y="374" class="small" font-size="22" text-anchor="middle">Input stream</text><text x="700" y="382" class="small" font-size="22" text-anchor="middle">Material split</text><text x="1020" y="364" class="small" font-size="22" text-anchor="middle">Value recovery</text><text x="640" y="695" class="small" font-size="20" text-anchor="middle">Recycle • Reuse • Compost • Return</text></svg>